<?xml version="1.0" encoding="UTF-8"?>
<svg version="1.1" xmlns="http://www.w3.org/2000/svg" width="3000" height="3000">
<path d="M0 0 C81.18 0 162.36 0 246 0 C243.75029173 10.12368722 243.75029173 10.12368722 242.36889648 14.15795898 C241.89620079 15.55045616 241.89620079 15.55045616 241.41395569 16.97108459 C240.89773903 18.46846413 240.89773903 18.46846413 240.37109375 19.99609375 C239.81191505 21.63806984 239.81191505 21.63806984 239.24143982 23.31321716 C238.19941357 26.37135748 237.15333659 29.42808021 236.10597992 32.48439789 C234.21561952 38.00747611 232.33862688 43.53512915 230.45857239 49.0617218 C229.67707027 51.35853939 228.89500973 53.65516636 228.11291504 55.95178223 C221.69380346 74.8088778 215.34738507 93.69047566 208.9960022 112.57046509 C205.42851714 123.17508399 201.8587326 133.77892896 198.2890625 144.3828125 C197.9362578 145.43089144 197.5834531 146.47897038 197.21995735 147.55880928 C190.24036757 168.29271776 183.24804777 189.02231515 176.25 209.75 C175.70137333 211.37504002 175.15274866 213.00008071 174.60412598 214.62512207 C174.33252907 215.4296003 174.06093216 216.23407852 173.78110504 217.06293488 C172.68331023 220.31464004 171.5855161 223.56634544 170.48773193 226.8180542 C169.93907172 228.4432187 169.39040636 230.06838146 168.84173584 231.69354248 C162.09790084 251.66903475 155.36119306 271.64692966 148.625 291.625 C148.01688692 293.42850766 147.40877331 295.23201515 146.80065918 297.03552246 C144.36335944 304.26394191 141.92609408 311.49237295 139.4888916 318.7208252 C135.24025125 331.32178399 130.9913293 343.92264779 126.7421875 356.5234375 C126.44331635 357.40973846 126.14444519 358.29603943 125.83651733 359.209198 C123.42270574 366.367339 121.00887688 373.52547418 118.595047 380.68360901 C116.48262731 386.94792408 114.37021544 393.21224178 112.2578125 399.4765625 C111.95898163 400.36274261 111.66015076 401.24892273 111.3522644 402.16195679 C107.09965927 414.77304664 102.84736288 427.38424056 98.59525108 439.99549675 C95.85523566 448.12202085 93.11513728 456.24851698 90.375 464.375 C90.07407818 465.26745296 89.77315636 466.15990593 89.46311569 467.07940292 C80.22383837 494.48043535 70.9788512 521.87953609 61.73042297 549.27748108 C52.5218089 576.5576944 43.32095562 603.84051708 34.125 631.125 C33.6561224 632.51616405 33.6561224 632.51616405 33.17777252 633.93543243 C32.23000311 636.74748136 31.28223712 639.55953144 30.33447266 642.37158203 C29.38656949 645.18404415 28.43866602 647.99650616 27.4907608 650.80896759 C26.85873505 652.6842061 26.22671092 654.55944515 25.59468842 656.43468475 C15.84056246 685.37545057 6.08096873 714.31437271 -3.67822647 743.25342941 C-7.91933632 755.82964624 -12.16003727 768.40600088 -16.40040588 780.98246765 C-28.22530665 816.0537551 -40.05212076 851.12439492 -51.88750458 886.1921463 C-52.64508633 888.43683004 -53.40265246 890.68151905 -54.16021729 892.9262085 C-66.76905622 930.28563161 -79.38574716 967.64240504 -92 1005 C98.08 1005.33 288.16 1005.66 484 1006 C484 1068.04 484 1130.08 484 1194 C199.21 1194 -85.58 1194 -379 1194 C-377.67899804 1187.39499022 -376.28207754 1181.13982434 -374.32397461 1174.74267578 C-373.92938175 1173.43309654 -373.92938175 1173.43309654 -373.52681732 1172.09706116 C-372.65632603 1169.21181539 -371.77930956 1166.32859627 -370.90234375 1163.4453125 C-370.27877309 1161.38244926 -369.65566092 1159.31944738 -369.03297424 1157.25631714 C-367.70208319 1152.84947045 -366.36848649 1148.44345569 -365.03271484 1144.03808594 C-361.82970402 1133.47361495 -358.64110625 1122.90478973 -355.45129776 1112.3363266 C-354.36753472 1108.74602211 -353.2832479 1105.15587607 -352.19894409 1101.56573486 C-346.65580279 1083.20634142 -341.1656716 1064.83164486 -335.7103405 1046.44599056 C-333.99155896 1040.65350463 -332.26896732 1034.86216362 -330.54394531 1029.0715332 C-330.29688402 1028.24207845 -330.04982273 1027.41262369 -329.79527473 1026.55803394 C-328.7823838 1023.15749207 -327.76947774 1019.75695471 -326.75642014 1016.35646248 C-323.48340809 1005.3683615 -320.22263129 994.37671846 -316.97412109 983.38134766 C-313.77931562 972.56786808 -310.57198858 961.75817982 -307.35207176 950.95215034 C-305.59844548 945.06503198 -303.85099405 939.17623533 -302.11816406 933.28295898 C-300.49697929 927.76974671 -298.86013472 922.26143457 -297.21109962 916.75649071 C-296.60251085 914.71442324 -295.99983503 912.67058357 -295.40329552 910.62496376 C-294.5854157 907.82359411 -293.74702989 905.02920104 -292.90307617 902.2355957 C-292.66679756 901.4078212 -292.43051895 900.58004669 -292.18708038 899.72718811 C-291.4896698 897.46528625 -291.4896698 897.46528625 -290 894 C-287.90689564 893.28341961 -287.90689564 893.28341961 -286 893 C-285.84121872 892.3147525 -285.68243744 891.629505 -285.5188446 890.92349243 C-283.44250042 882.27145384 -280.79157792 873.84592597 -278.01953125 865.3984375 C-277.52926101 863.89388413 -277.0393875 862.38920143 -276.54988098 860.88439941 C-275.51289089 857.69886945 -274.47352924 854.51412794 -273.43218994 851.33001709 C-271.79146653 846.31272076 -270.15650397 841.2935601 -268.52294922 836.27392578 C-268.1145965 835.01913579 -268.1145965 835.01913579 -267.69799423 833.73899651 C-267.14920622 832.05258049 -266.60044542 830.36615562 -266.05171204 828.67972183 C-265.23115119 826.15834695 -264.41010929 823.63712911 -263.58898926 821.11593628 C-259.22581533 807.71558361 -254.90847465 794.30106161 -250.625 780.875 C-249.9944197 778.89972843 -249.36380446 776.92446802 -248.7331543 774.94921875 C-247.79021937 771.9957967 -246.84729922 769.04237001 -245.90461731 766.08886719 C-241.99536526 753.84536248 -238.05967273 741.61035369 -234.125 729.375 C-233.36816145 727.02115969 -232.61132551 724.66731855 -231.85449219 722.31347656 C-229.18817362 714.02142762 -226.52120831 705.72958671 -223.85424805 697.43774414 C-221.19409998 689.16695761 -218.53430793 680.8960567 -215.875 672.625 C-215.50037628 671.45987885 -215.12575256 670.29475769 -214.73977661 669.09432983 C-209.1732808 651.78022755 -203.62515294 634.46031913 -198.08734131 617.13702393 C-192.17876556 598.65646147 -186.23394656 580.18767679 -180.28201294 561.72103882 C-174.83514808 544.82023437 -169.40562942 527.91403745 -164 511 C-157.78848698 491.56437917 -151.54108005 472.14048123 -145.28173828 452.72021484 C-139.83496634 435.81968465 -134.40554128 418.91376166 -129 402 C-122.78816392 382.56336831 -116.54055347 363.13842029 -110.2807312 343.7171936 C-104.8543304 326.88041808 -99.44654378 310.03786598 -94.0625 293.1875 C-88.07460524 274.44766329 -82.04518315 255.72141268 -76 237 C-69.60836359 217.20541675 -63.2376999 197.40434237 -56.90524292 177.59072876 C-51.64042945 161.11779116 -46.35701684 144.65091472 -41.0625 128.1875 C-35.48639769 110.84678616 -29.91174824 93.50561261 -24.34689331 76.1612854 C-23.68697316 74.10458131 -23.02693128 72.04791627 -22.36672974 69.99130249 C-14.88077583 46.6705467 -7.44680783 23.3333312 0 0 Z " fill="#FDFDFD" transform="translate(1677,428)"/>
<path d="M0 0 C83.16 0 166.32 0 252 0 C256.49900142 11.24750355 256.49900142 11.24750355 257.90917969 15.66821289 C258.23277466 16.67600296 258.55636963 17.68379303 258.88977051 18.72212219 C259.40066223 20.33113655 259.40066223 20.33113655 259.921875 21.97265625 C260.48110657 23.7170826 260.48110657 23.7170826 261.05163574 25.49674988 C261.86139941 28.022906 262.66998928 30.54940377 263.47668457 33.07653809 C265.69337721 40.01902234 267.92450734 46.95687317 270.15625 53.89453125 C270.39061012 54.62335888 270.62497025 55.35218651 270.86643219 56.10309982 C276.3226197 73.0645015 281.89635386 89.98681652 287.4773941 106.90745926 C294.67725796 128.73744333 301.82641781 150.57955829 308.78430176 172.48815918 C315.64923841 194.08514966 322.76250131 215.59944555 329.86442184 237.11932755 C336.64174195 257.65678003 343.39663128 278.19820219 349.9375 298.8125 C356.95584955 320.93105128 364.22514606 342.96481413 371.5 365 C378.77485636 387.03519321 386.04371477 409.0690818 393.0625 431.1875 C399.92877837 452.82195051 407.01823784 474.38115459 414.125 495.9375 C414.70218096 497.68841487 415.27935992 499.43933039 415.85653687 501.19024658 C416.99176816 504.6339168 418.12705032 508.07757025 419.26237488 511.52120972 C419.53732473 512.35518154 419.81227459 513.18915337 420.09555626 514.04839706 C420.64515366 515.71536967 421.19477639 517.38233392 421.74442482 519.0492897 C425.97510362 531.8803567 430.19512962 544.71477241 434.375 557.5625 C434.6359848 558.36455872 434.8969696 559.16661743 435.16586304 559.99298096 C438.62131469 570.61913729 442.04951925 581.25402094 445.47265625 591.890625 C446.91588327 596.37423984 448.35924888 600.85781 449.80284882 605.34130478 C450.2251847 606.65305916 450.64747186 607.96482923 451.06970978 609.27661514 C458.45429103 632.21775267 465.95269814 655.12019739 473.49465561 678.01002884 C479.97182996 697.66929498 486.38308011 717.34574576 492.646698 737.07434082 C500.58382632 762.04941099 508.83319135 786.92286564 517.05663395 811.80477524 C518.21745124 815.31753455 519.37737999 818.83058699 520.53727531 822.34365082 C521.34109742 824.77660546 522.14651584 827.20902746 522.95204163 829.64141846 C523.90665984 832.52534867 524.85236169 835.41192492 525.78970337 838.30151367 C526.51927292 840.5309696 527.2671474 842.75471878 528.04989624 844.96606445 C528.33531281 845.80548584 528.62072937 846.64490723 528.91479492 847.50976562 C529.27355965 848.51311951 529.27355965 848.51311951 529.63957214 849.53674316 C530.5982755 856.0887689 528.75798542 862.63737476 526.82397461 868.86083984 C526.60139355 869.59982702 526.37881248 870.3388142 526.14948654 871.10019493 C525.40780799 873.55607647 524.65504224 876.00841317 523.90234375 878.4609375 C523.36383493 880.23677736 522.82608035 882.01284608 522.28901672 883.78912354 C521.12736862 887.62616711 519.9609752 891.46172347 518.79089355 895.29620361 C516.900833 901.4910335 515.02203941 907.68924397 513.14550781 913.88818359 C512.49405222 916.03994846 511.84259345 918.19171237 511.19113159 920.34347534 C510.86415157 921.4235574 510.53717155 922.50363945 510.20028305 923.61645126 C509.18864775 926.95677949 508.176 930.29679935 507.16311646 933.63674927 C500.12807644 956.84042374 493.18071828 980.07011248 486.24229431 1003.30282593 C484.58117641 1008.864203 482.91898248 1014.42525842 481.25683594 1019.98632812 C479.23680303 1026.74497407 477.2168464 1033.50364275 475.19735718 1040.26245117 C470.21679686 1056.9311318 465.23227479 1073.59862494 460.24609375 1090.265625 C459.51849946 1092.69782381 458.79090952 1095.13002392 458.06332397 1097.56222534 C452.310319 1116.79347856 452.310319 1116.79347856 449.67468262 1125.60235596 C448.07348701 1130.9539501 446.47265039 1136.30565154 444.8719902 1141.65740585 C443.96327223 1144.69520736 443.05411005 1147.73287569 442.14492798 1150.77053833 C439.30717253 1160.25557039 436.48065997 1169.74372624 433.67822266 1179.23925781 C433.15878681 1180.99676362 432.63932246 1182.754261 432.11982727 1184.51174927 C431.1598026 1187.75994076 430.20398317 1191.00932831 429.25065613 1194.25949097 C428.82977262 1195.68492045 428.40874618 1197.11030775 427.98754883 1198.53564453 C427.62542801 1199.76783722 427.26330719 1201.00002991 426.89021301 1202.26956177 C426 1205 426 1205 425 1206 C423.43827255 1206.08685603 421.87270656 1206.10702219 420.30859375 1206.09765625 C418.89223633 1206.09282227 418.89223633 1206.09282227 417.44726562 1206.08789062 C416.45404297 1206.07951172 415.46082031 1206.07113281 414.4375 1206.0625 C413.44041016 1206.05798828 412.44332031 1206.05347656 411.41601562 1206.04882812 C408.94394862 1206.03700005 406.47201335 1206.01967958 404 1206 C403.98514053 1205.38485535 403.97028107 1204.76971069 403.95497131 1204.13592529 C403.48016639 1195.45408984 400.88852256 1187.71583001 398.05859375 1179.578125 C397.54228897 1178.06395012 397.0271059 1176.54939237 396.51295471 1175.03448486 C395.41148557 1171.79663427 394.3024582 1168.5615151 393.18725586 1165.32836914 C391.40634677 1160.16508092 389.64239169 1154.99609744 387.88085938 1149.82617188 C385.75018391 1143.57646793 383.61555144 1137.3281448 381.47539711 1131.0816803 C377.90891235 1120.67185343 374.36731923 1110.25387132 370.84765625 1099.828125 C370.6041424 1099.10684795 370.36062855 1098.38557091 370.10973549 1097.64243698 C368.89132683 1094.03306874 367.67343841 1090.42352523 366.45578003 1086.81390381 C364.24610051 1080.2645275 362.03117209 1073.7169255 359.8169651 1067.16907883 C355.37173265 1054.02280242 350.93101823 1040.87500163 346.4921875 1027.7265625 C346.21991648 1026.92006193 345.94764545 1026.11356136 345.66712379 1025.28262138 C344.28856201 1021.19911528 342.91003555 1017.11559726 341.53152466 1013.03207397 C341.25819935 1012.22241055 340.98487404 1011.41274712 340.70326614 1010.57854843 C340.1510064 1008.94260565 339.59874759 1007.30666256 339.04648972 1005.67071915 C331.17446561 982.35183165 323.29214267 959.03646341 315.39794159 935.72507477 C307.12554437 911.29656954 298.87523828 886.86064361 290.63051224 862.42278671 C282.76568056 839.1111156 274.89178145 815.8025616 267 792.5 C258.52650146 767.4797656 250.07479986 742.45221926 241.63031006 717.42218018 C233.76555366 694.11070859 225.89171308 670.80235973 218 647.5 C209.52650146 622.4797656 201.07479986 597.45221926 192.63031006 572.42218018 C184.76555366 549.11070859 176.89171308 525.80235973 169 502.5 C160.52650146 477.4797656 152.07479986 452.45221926 143.63031006 427.42218018 C135.76555363 404.11070849 127.89164391 380.80238321 120 357.5 C111.85981698 333.46344926 103.73806469 309.42071726 95.625 285.375 C93.32949502 278.57159166 91.03395655 271.76819462 88.73828125 264.96484375 C88.31387914 263.70710616 88.31387914 263.70710616 87.88090324 262.42395973 C81.86401595 244.59314038 75.83959963 226.76486966 69.8125 208.9375 C69.44486038 207.8500499 69.44486038 207.8500499 69.0697937 206.7406311 C66.11592506 198.00332194 63.16180038 189.26609936 60.20755577 180.52891731 C56.25749884 168.84658861 52.3077911 157.16414185 48.35844135 145.48157406 C47.12239477 141.82524317 45.88629121 138.16893155 44.65005493 134.51266479 C39.05557722 117.96648392 33.46533064 101.41888718 27.88329697 84.86850357 C26.99507482 82.23512277 26.10671148 79.60178965 25.21829224 76.96847534 C24.92700125 76.10507349 24.63571026 75.24167164 24.33559227 74.35210609 C23.75076154 72.61865321 23.16592397 70.88520263 22.58107948 69.15175438 C21.16722063 64.96089649 19.75379043 60.76989503 18.34136963 56.57855225 C17.02290299 52.66602668 15.70364547 48.75376893 14.38354874 44.84179306 C13.88159554 43.35419925 13.37983027 41.86654201 12.87826157 40.37881851 C10.44685464 33.16937828 7.99993655 25.96697107 5.4765625 18.7890625 C5.09677246 17.70870728 4.71698242 16.62835205 4.32568359 15.51525879 C3.63269657 13.55260817 2.9354334 11.59145955 2.23291016 9.63220215 C1.93433105 8.78871216 1.63575195 7.94522217 1.328125 7.07617188 C1.0693457 6.35425659 0.81056641 5.63234131 0.54394531 4.8885498 C0 3 0 3 0 0 Z " fill="#FDFDFD" transform="translate(828,428)"/>
<path d="M0 0 C78.21 0 156.42 0 237 0 C237 320.76 237 641.52 237 972 C158.79 972 80.58 972 0 972 C0 651.24 0 330.48 0 0 Z " fill="#FDFDFD" transform="translate(1578,1661)"/>
</svg>
